<!-- <svg xmlns="http://www.w3.org/2000/svg" xmlns:xlink="http://www.w3.org/1999/xlink" width="16" height="16" fill="none" viewBox="0 0 16 16"><defs><rect id="path_0" width="16" height="16" x="0" y="0"/></defs><g opacity="1" transform="translate(0 0) rotate(0 8 8)"><mask id="bg-mask-0" fill="#fff"><use xlink:href="#path_0"/></mask><g mask="url(#bg-mask-0)"><path id="路径 1" style="stroke:#333;stroke-width:1.3333333333333333;stroke-opacity:1;stroke-dasharray:0 0" d="M7.11,8.51C7.92,8.35 8.64,8.06 9.21,7.64C10.17,6.91 10.67,5.79 10.67,4.69C10.67,3.91 10.37,3.19 9.86,2.58C9.58,2.24 10.41,-0.31 9.67,0.03C8.94,0.37 7.86,1.13 7.29,0.97C6.68,0.79 6.02,0.69 5.33,0.69C4.73,0.69 4.16,0.76 3.62,0.9C2.83,1.1 2.09,0.36 1.33,0.03C0.58,-0.29 0.99,2.34 0.77,2.62C0.28,3.22 0,3.93 0,4.69C0,5.79 0.6,6.91 1.56,7.64C2.21,8.12 3.01,8.42 3.91,8.58" transform="translate(2.6666666666666665 1.644694921083138) rotate(0 5.333333333333333 4.287969206125098)"/><path id="路径 2" style="stroke:#333;stroke-width:1.3333333333333333;stroke-opacity:1;stroke-dasharray:0 0" d="M0.58,0C0.19,0.43 0,0.83 0,1.21C0,1.59 0,2.56 0,4.12" transform="translate(6.000666666666666 10.220633333333332) rotate(0 0.2896166666666667 2.058116666666666)"/><path id="路径 3" style="stroke:#333;stroke-width:1.3333333333333333;stroke-opacity:1;stroke-dasharray:0 0" d="M0,0C0.37,0.48 0.55,0.91 0.55,1.29C0.55,1.68 0.55,2.64 0.55,4.18" transform="translate(9.781533333333332 10.158866666666666) rotate(0 0.2744333333333332 2.0890166666666663)"/><path id="路径 4" style="stroke:#333;stroke-width:1.3333333333333333;stroke-opacity:1;stroke-dasharray:0 0" d="M0,0C0.3,0.04 0.52,0.17 0.67,0.41C0.88,0.77 1.69,2.1 2.61,2.1C3.22,2.1 3.68,2.1 4,2.1" transform="translate(2 10.405166666666666) rotate(0 2.0004 1.050416666666667)"/></g></g></svg> -->
<svg t="1686045710984" class="icon" viewBox="0 0 1024 1024" version="1.1" xmlns="http://www.w3.org/2000/svg" p-id="1963" width="16" height="16"><path d="M561.75994855 288.33541115a109.72476014 109.72476014 0 1 0-0.48327005 219.4495193h0.48327005a109.72476014 109.72476014 0 0 0 0-219.4495193z" p-id="1964"></path><path d="M511.9943802 2.66666667C233.64211906 2.66666667 8 228.30878573 8 506.66104687s225.64211906 503.9943802 503.9943802 503.99438119 503.9943802-225.64211906 503.99438119-503.99438119S790.34664233 2.66666667 511.9943802 2.66666667zM272.41610497 656.76694654a24.09606577 24.09606577 0 0 1-48.18089194 0 168.58254656 168.58254656 0 0 1 90.3490058-149.39785251 120.44661005 120.44661005 0 0 1 78.2784952-211.94197763 24.09606577 24.09606577 0 0 1 0 48.18089194 72.27695672 72.27695672 0 0 0 0 144.55391442 24.09606577 24.09606577 0 0 1 24.10730438 24.11854299 24.10730437 24.10730437 0 0 1-24.10730438 24.07358756 120.44661005 120.44661005 0 0 0-120.44660906 120.44661005z m507.17497064 108.94928035a20.53335375 20.53335375 0 0 1-20.89299713-20.22990539 196.84822008 196.84822008 0 0 0-196.93812993-196.67963799h-0.49450866a196.83698147 196.83698147 0 0 0-196.96060912 196.67963799 20.53335375 20.53335375 0 0 1-41.0667075 0 238.38695902 238.38695902 0 0 1 153.97205906-222.42781181 150.80270723 150.80270723 0 1 1 168.58254558 0 239.00509533 239.00509533 0 0 1 84.12269118 54.40720654 236.55502927 236.55502927 0 0 1 69.79317385 168.0767993 20.53335375 20.53335375 0 0 1-20.11751733 20.17371136z" p-id="1965"></path></svg>